<svg width="24" height="24" viewBox="0 0 24 24" fill="none" xmlns="http://www.w3.org/2000/svg">
<path d="M20.5899 10.52C21.1399 11.43 21.1399 12.57 20.5899 13.48C19.3599 15.53 16.6098 19 11.9998 19C11.2518 19 10.5478 18.905 9.89382 18.74C9.67082 18.684 9.6007 18.3981 9.7637 18.2361L11.6597 16.3401C11.7757 16.2241 11.9198 16.25 11.9998 16.25C14.3438 16.25 16.2498 14.343 16.2498 12C16.2498 11.92 16.2378 11.762 16.3208 11.679L19.0628 8.93704C19.1898 8.81004 19.4037 8.82313 19.5147 8.96413C19.9547 9.52013 20.3129 10.053 20.5899 10.52ZM21.5298 3.53005L3.52981 21.5301C3.38381 21.6761 3.19178 21.75 2.99978 21.75C2.80778 21.75 2.61575 21.6771 2.46975 21.5301C2.17675 21.2371 2.17675 20.762 2.46975 20.469L6.17483 16.7639C4.90483 15.6829 3.98369 14.436 3.40969 13.479C2.85969 12.569 2.85969 11.4291 3.40969 10.5191C4.63969 8.46907 7.38978 4.99905 11.9998 4.99905C13.8238 4.99905 15.3468 5.54595 16.6128 6.32595L20.4697 2.46902C20.7627 2.17602 21.2378 2.17602 21.5308 2.46902C21.8238 2.76202 21.8228 3.23705 21.5298 3.53005ZM8.5198 14.419L9.60867 13.3301C9.38667 12.9351 9.24978 12.486 9.24978 12C9.24978 11.65 9.31972 11.32 9.43972 11.01C9.62972 11.17 9.86967 11.27 10.1397 11.27C10.7597 11.27 11.2698 10.7599 11.2698 10.1399C11.2698 9.86992 11.1698 9.62996 11.0098 9.43996C11.3198 9.31996 11.6498 9.25002 11.9998 9.25002C12.4858 9.25002 12.9359 9.38691 13.3299 9.60891L14.4187 8.52004C13.7307 8.03804 12.8988 7.75002 11.9998 7.75002C9.65978 7.75002 7.74978 9.66002 7.74978 12C7.74978 12.9 8.0378 13.731 8.5198 14.419Z" fill="#D80E43"/>
</svg>
