<svg width="24" height="20" viewBox="0 0 24 20" fill="none" xmlns="http://www.w3.org/2000/svg">
<path d="M22 4.16671V7.50004L12 10.8334L2 7.50004V4.16671C2 3.94569 2.10536 3.73373 2.29289 3.57745C2.48043 3.42117 2.73478 3.33337 3 3.33337H21C21.2652 3.33337 21.5196 3.42117 21.7071 3.57745C21.8946 3.73373 22 3.94569 22 4.16671ZM2 9.29504V15.8334C2 16.0544 2.10536 16.2663 2.29289 16.4226C2.48043 16.5789 2.73478 16.6667 3 16.6667H21C21.2652 16.6667 21.5196 16.5789 21.7071 16.4226C21.8946 16.2663 22 16.0544 22 15.8334V9.29504L12 12.6284L2 9.29504Z" fill="white"/>
</svg>
