<svg width="25" height="25" viewBox="0 0 25 25" fill="none" xmlns="http://www.w3.org/2000/svg">
<path d="M9.26875 6.9613V8.68005V10.4762V15.5316C8.77344 15.2557 8.19297 15.0938 7.56953 15.0938C5.76797 15.0938 4.30664 16.4219 4.30664 18.0586C4.30664 19.6971 5.76758 21.0252 7.56953 21.0252C9.37031 21.0252 10.8309 19.6974 10.8312 18.0593V10.0678L19.132 7.89844V12.9723C18.6367 12.6964 18.0562 12.5345 17.4328 12.5345C15.6305 12.5345 14.1699 13.8622 14.1699 15.4989C14.1699 17.1371 15.6305 18.4656 17.4328 18.4656C19.1297 18.4656 20.5242 17.2848 20.6789 15.7773H20.6945V7.49006V6.21662V3.97479L9.26875 6.9613Z" fill="white"/>
</svg>
