<svg width="25" height="25" viewBox="0 0 25 25" fill="none" xmlns="http://www.w3.org/2000/svg">
<g clip-path="url(#clip0_6002_11)">
<path d="M3.875 23.9091C3.375 23.9091 2.9375 23.7182 2.5625 23.3364C2.1875 22.9545 2 22.5091 2 22V2.90909C2 2.4 2.1875 1.95455 2.5625 1.57273C2.9375 1.19091 3.375 1 3.875 1H18.3125L24.5 7.3V22C24.5 22.5091 24.3125 22.9545 23.9375 23.3364C23.5625 23.7182 23.125 23.9091 22.625 23.9091H3.875ZM3.875 22H22.625V8.35H17.2813V2.90909H3.875V22ZM6.96875 18.4682H19.5312V16.5591H6.96875V18.4682ZM6.96875 8.35H13.25V6.44091H6.96875V8.35ZM6.96875 13.4091H19.5312V11.5H6.96875V13.4091Z" fill="white"/>
</g>
<defs>
<clipPath id="clip0_6002_11">
<rect width="25" height="25" fill="white"/>
</clipPath>
</defs>
</svg>
