<svg width="25" height="24" viewBox="0 0 25 24" fill="none" xmlns="http://www.w3.org/2000/svg">
<path d="M20.3683 10.2199C20.3683 4.24457 17.1541 2.212 14.1481 1.75895C14.1481 1.72834 14.1542 1.69773 14.1542 1.661C14.1542 0.907961 13.4869 0.307983 12.6726 0.307983C11.8584 0.307983 11.2156 0.907961 11.2156 1.661C11.2156 1.69773 11.2156 1.72834 11.2217 1.75895C8.20954 2.21812 4.977 4.25682 4.977 10.2321C4.977 17.1992 3.24441 17.9461 0.917969 19.9052H24.4273C22.1131 17.94 20.3683 17.187 20.3683 10.2199Z" fill="white"/>
<path d="M12.6847 23.8174C14.3255 23.8174 15.6724 22.5991 15.8499 21.1849H9.51953C9.69095 22.5991 11.044 23.8174 12.6847 23.8174Z" fill="white"/>
</svg>
