<svg width="25" height="25" viewBox="0 0 25 25" fill="none" xmlns="http://www.w3.org/2000/svg">
<path d="M24.1673 6.81825C23.959 6.72355 23.7507 6.72355 23.6465 6.81825L20.0007 9.37507V8.2387C20.0007 6.72355 18.6465 5.49249 16.9798 5.49249H3.54232C1.87565 5.49249 0.521484 6.72355 0.521484 8.2387V16.7614C0.521484 18.2766 1.87565 19.5076 3.54232 19.5076H16.9798C18.6465 19.5076 20.0007 18.2766 20.0007 16.7614V15.6251L23.6465 18.1819C23.7507 18.2766 23.959 18.2766 24.1673 18.1819C24.3757 18.0872 24.4798 17.9925 24.4798 17.8031V7.19704C24.4798 7.00764 24.3757 6.91295 24.1673 6.81825Z" fill="white"/>
</svg>
