<svg width="48" height="48" viewBox="0 0 48 48" fill="none" xmlns="http://www.w3.org/2000/svg">
<path d="M24 2.5C12.144 2.5 2.5 12.146 2.5 24C2.5 35.854 12.144 45.5 24 45.5C35.856 45.5 45.5 35.854 45.5 24C45.5 12.146 35.856 2.5 24 2.5ZM5.5 24C5.5 21.868 5.87997 19.828 6.54797 17.92C7.78797 26.94 15.7 27.702 16.042 29.14C16.422 30.76 16.042 31.24 16.182 34.02C16.322 36.8 20.162 36.84 21.642 39.04C22.078 39.68 22.33 41.05 22.222 42.41C12.852 41.512 5.5 33.6 5.5 24ZM29.02 41.79C30.382 37.524 34.4719 36.078 34.8879 33.612C35.2219 31.634 32.622 30.622 30.288 30.334C27.976 30.068 28.31 27.646 26.666 25.934C25.022 24.222 23.946 24.32 21.636 24.608C19.302 24.874 17.346 24.708 16.7 23.286C16.078 21.864 16.878 21.184 15.178 19.422C13.762 17.954 15.282 16.638 16.038 16.46C17.238 16.172 19.3719 18.27 20.6219 18.014C24.3879 17.238 19.876 9.86798 25.532 8.01398C26.522 7.68998 27.4479 6.90203 27.9139 5.92603C31.1459 6.62603 34.054 8.17799 36.418 10.326C37.068 12.176 37.52 14.3 37.142 15.426C36.386 17.76 34.4881 19.438 36.5601 23.258C38.7221 27.246 40.056 27.788 41.028 26.692C41.414 26.256 41.916 25.948 42.416 25.762C41.682 33.436 36.242 39.748 29.02 41.79Z" fill="white"/>
</svg>
